<svg width="95" height="95" viewBox="0 0 95 95" fill="none" xmlns="http://www.w3.org/2000/svg">
<path d="M70.1842 42.622L62.7017 22.0687C62.0387 20.1744 60.2391 18.9431 58.2501 18.9431H47.3578V23.6789H58.2501L65.1643 42.622H41.438L39.6858 37.8863H47.3578V33.1505H28.4146V37.8863H34.6659L41.5801 56.8294H37.6494C36.4655 48.2576 29.0303 41.959 19.8902 42.6694C12.1235 43.285 5.63551 49.5836 4.83042 57.3503C3.78855 67.4849 11.4132 75.7725 21.311 75.7725C29.788 75.7725 36.5128 69.6634 37.6494 61.5652H57.0661C58.2501 70.1369 65.7326 76.4355 74.8253 75.7252C82.592 75.1095 89.08 68.8109 89.8851 61.0442C90.927 50.9097 83.3024 42.622 73.4046 42.622H70.1842ZM43.1429 47.3578H61.7072C59.1972 49.8204 57.5397 53.1355 57.0661 56.8294H46.6L43.1429 47.3578ZM21.311 71.0367C14.6809 71.0367 9.47149 65.8274 9.47149 59.1973C9.47149 52.5672 14.6809 47.3578 21.311 47.3578C27.136 47.3578 31.8718 51.3832 32.9136 56.8294H18.9431V61.5652H32.9136C31.8718 67.0113 27.136 71.0367 21.311 71.0367ZM73.4046 71.0367C66.7745 71.0367 61.5651 65.8274 61.5651 59.1973C61.5651 54.7456 63.933 51.0044 67.4375 48.968L72.3154 62.3703L76.767 60.7601L71.9365 47.4999C72.4574 47.4525 72.931 47.3578 73.4046 47.3578C80.0347 47.3578 85.244 52.5672 85.244 59.1973C85.244 65.8274 80.0347 71.0367 73.4046 71.0367Z" fill="white"/>
</svg>
