<svg width="95" height="65" viewBox="0 0 95 65" fill="none" xmlns="http://www.w3.org/2000/svg">
<path d="M90.7013 23.4953L72.8884 20.751L62.033 3.01743C61.4632 2.08922 60.6635 1.3238 59.7112 0.795211C58.7589 0.266624 57.6863 -0.0072301 56.5971 0.000145121L11.1024 0.362631C9.78977 0.373717 8.51315 0.793414 7.44997 1.5634C6.38678 2.33339 5.58985 3.41543 5.1699 4.65917L0 19.9895V55.2365H10.854C11.6978 57.9793 13.3987 60.3794 15.7069 62.0843C18.0152 63.7892 20.8093 64.7092 23.6789 64.7092C26.5486 64.7092 29.3426 63.7892 31.6509 62.0843C33.9591 60.3794 35.66 57.9793 36.5038 55.2365H56.6332C57.477 57.9793 59.1779 60.3794 61.4862 62.0843C63.7944 63.7892 66.5885 64.7092 69.4581 64.7092C72.3278 64.7092 75.1218 63.7892 77.4301 62.0843C79.7384 60.3794 81.4392 57.9793 82.283 55.2365H94.7156V28.1759C94.7208 27.0435 94.3179 25.9471 93.5807 25.0875C92.8435 24.228 91.8213 23.6627 90.7013 23.4953ZM41.0434 6.43824L56.6475 6.31393L65.3495 20.5306L41.0434 20.5221V6.43824ZM11.153 6.67661L34.7291 6.48876V20.5199L6.48822 20.5098L11.153 6.67661ZM23.6789 58.3937C22.2739 58.3937 20.9005 57.9771 19.7323 57.1965C18.5641 56.416 17.6536 55.3065 17.116 54.0085C16.5783 52.7105 16.4376 51.2822 16.7117 49.9042C16.9858 48.5262 17.6624 47.2605 18.6559 46.267C19.6493 45.2735 20.9151 44.597 22.2931 44.3229C23.671 44.0488 25.0993 44.1894 26.3974 44.7271C27.6954 45.2648 28.8048 46.1753 29.5854 47.3435C30.366 48.5117 30.7826 49.8851 30.7826 51.29C30.7805 53.1734 30.0314 54.9791 28.6997 56.3108C27.3679 57.6425 25.5623 58.3916 23.6789 58.3937ZM69.4581 58.3937C68.0532 58.3937 66.6797 57.9771 65.5116 57.1965C64.3434 56.416 63.4329 55.3065 62.8952 54.0085C62.3575 52.7105 62.2169 51.2822 62.491 49.9042C62.7651 48.5262 63.4416 47.2605 64.4351 46.267C65.4286 45.2735 66.6943 44.597 68.0723 44.3229C69.4503 44.0488 70.8786 44.1894 72.1766 44.7271C73.4746 45.2648 74.5841 46.1753 75.3646 47.3435C76.1452 48.5117 76.5618 49.8851 76.5618 51.29C76.5597 53.1734 75.8106 54.9791 74.4789 56.3108C73.1471 57.6425 71.3415 58.3916 69.4581 58.3937ZM88.4013 48.9222H82.6627C82.108 45.8237 80.4813 43.019 78.0673 40.9988C75.6534 38.9786 72.6059 37.8717 69.4581 37.8717C66.3104 37.8717 63.2629 38.9786 60.849 40.9988C58.435 43.019 56.8083 45.8237 56.2536 48.9222H36.8835C36.3287 45.8237 34.7021 43.019 32.2881 40.9988C29.8741 38.9786 26.8266 37.8717 23.6789 37.8717C20.5312 37.8717 17.4837 38.9786 15.0697 40.9988C12.6558 43.019 11.0291 45.8237 10.4744 48.9222H6.31438V26.827L71.5352 26.9314L88.4013 29.5299V48.9222Z" fill="white"/>
</svg>
