<svg width="95" height="97" viewBox="0 0 95 97" fill="none" xmlns="http://www.w3.org/2000/svg">
<path d="M74.856 10.3309C86.8864 18.924 94.7157 32.9786 94.7157 48.8855C94.7157 75.0087 73.5574 96.186 47.4533 96.2433C21.3874 96.3006 0.0382266 75.0469 3.48531e-05 48.9619C-0.019061 33.055 7.81026 18.9622 19.8216 10.35C22.0558 8.76502 25.1684 9.43337 26.5051 11.8204L29.5223 17.1863C30.649 19.1914 30.1143 21.7311 28.262 23.106C20.3372 28.9876 15.2768 38.3064 15.2768 48.8664C15.2577 66.4919 29.5032 80.9666 47.3579 80.9666C64.8497 80.9666 79.5535 66.7975 79.439 48.6754C79.3817 38.7838 74.7223 29.2358 66.4347 23.0869C64.5824 21.712 64.0668 19.1723 65.1934 17.1863L68.2106 11.8204C69.5473 9.45247 72.6408 8.74592 74.856 10.3309ZM54.9962 50.4132V4.58302C54.9962 2.04326 52.953 0 50.4132 0H44.3025C41.7628 0 39.7195 2.04326 39.7195 4.58302V50.4132C39.7195 52.9529 41.7628 54.9962 44.3025 54.9962H50.4132C52.953 54.9962 54.9962 52.9529 54.9962 50.4132Z" fill="#890000"/>
</svg>
