<svg width="95" height="138" viewBox="0 0 95 138" fill="none" xmlns="http://www.w3.org/2000/svg">
<path fill-rule="evenodd" clip-rule="evenodd" d="M75.3496 0.589297C76.1923 1.07783 76.8444 1.83769 77.1994 2.74476C77.5544 3.65182 77.5913 4.65246 77.3041 5.58322L61.7972 55.9701H90.4089C91.2497 55.9698 92.0722 56.2157 92.7749 56.6775C93.4776 57.1393 94.0297 57.7967 94.363 58.5686C94.6963 59.3406 94.7963 60.1932 94.6505 61.0213C94.5048 61.8494 94.1198 62.6168 93.543 63.2285L24.6613 136.415C23.9949 137.124 23.108 137.586 22.1452 137.726C21.1825 137.866 20.2007 137.676 19.3598 137.187C18.5189 136.698 17.8686 135.938 17.5148 135.032C17.161 134.125 17.1246 133.126 17.4116 132.196L32.9185 81.8008H4.30682C3.46599 81.8011 2.64347 81.5552 1.94079 81.0934C1.23811 80.6316 0.686031 79.9742 0.352713 79.2023C0.0193952 78.4303 -0.0805738 77.5777 0.0651462 76.7496C0.210866 75.9214 0.595895 75.1541 1.1727 74.5423L70.0543 1.35561C70.72 0.647839 71.6056 0.18607 72.5669 0.0453783C73.5283 -0.095313 74.509 0.0933485 75.3496 0.580687V0.589297ZM14.2688 73.1905H38.7476C39.4214 73.1904 40.0857 73.3484 40.6873 73.6518C41.2888 73.9552 41.8107 74.3956 42.2111 74.9375C42.6114 75.4794 42.879 76.1077 42.9923 76.7718C43.1056 77.4359 43.0614 78.1174 42.8633 78.7614L31.0846 117.016L80.4382 64.5803H55.968C55.2943 64.5805 54.63 64.4225 54.0284 64.1191C53.4269 63.8157 52.9049 63.3753 52.5046 62.8334C52.1042 62.2915 51.8367 61.6632 51.7234 60.9991C51.6101 60.335 51.6543 59.6535 51.8524 59.0095L63.6311 20.7544L14.2688 73.1905Z" fill="white"/>
</svg>
