<svg xmlns="http://www.w3.org/2000/svg" xmlns:xlink="http://www.w3.org/1999/xlink" width="500" zoomAndPan="magnify" viewBox="0 0 375 374.999991" height="500" preserveAspectRatio="xMidYMid meet" version="1.0"><defs><g/><clipPath id="833b454825"><path d="M 231.496094 112 L 235 112 L 235 116 L 231.496094 116 Z M 231.496094 112 " clip-rule="nonzero"/></clipPath><clipPath id="92116606d1"><path d="M 366 215 L 369.496094 215 L 369.496094 219 L 366 219 Z M 366 215 " clip-rule="nonzero"/></clipPath><clipPath id="c54bd0c100"><path d="M 324 84.433594 L 328 84.433594 L 328 88 L 324 88 Z M 324 84.433594 " clip-rule="nonzero"/></clipPath><clipPath id="cc229eb086"><path d="M 290 231 L 294 231 L 294 234.433594 L 290 234.433594 Z M 290 231 " clip-rule="nonzero"/></clipPath></defs><g fill="#ffffff" fill-opacity="1"><g transform="translate(13.523352, 174.032509)"><g><path d="M 13.25 -44.0625 L 13.25 -8.8125 L 28.40625 -8.8125 L 28.40625 0 L 3.203125 0 L 3.203125 -44.0625 Z M 13.25 -44.0625 "/></g></g></g><g fill="#ffffff" fill-opacity="1"><g transform="translate(41.018794, 174.032509)"><g><path d="M 23.984375 -27.390625 L 34.875 -27.390625 L 13.34375 13.890625 L 2.453125 13.890625 L 11.90625 -4.265625 L -1.0625 -27.390625 L 9.828125 -27.390625 L 17.46875 -13.34375 Z M 23.984375 -27.390625 "/></g></g></g><g fill="#ffffff" fill-opacity="1"><g transform="translate(72.144804, 174.032509)"><g><path d="M 5.796875 -3.25 C 2.753906 -5.957031 1.234375 -9.429688 1.234375 -13.671875 C 1.234375 -17.910156 2.816406 -21.390625 5.984375 -24.109375 C 9.148438 -26.835938 13.066406 -28.203125 17.734375 -28.203125 C 22.328125 -28.203125 26.195312 -26.828125 29.34375 -24.078125 C 32.5 -21.335938 34.078125 -17.867188 34.078125 -13.671875 C 34.078125 -9.472656 32.535156 -6.007812 29.453125 -3.28125 C 26.367188 -0.5625 22.460938 0.796875 17.734375 0.796875 C 12.816406 0.796875 8.835938 -0.550781 5.796875 -3.25 Z M 13.109375 -18.3125 C 11.878906 -17.101562 11.265625 -15.554688 11.265625 -13.671875 C 11.265625 -11.785156 11.851562 -10.242188 13.03125 -9.046875 C 14.207031 -7.859375 15.753906 -7.265625 17.671875 -7.265625 C 19.523438 -7.265625 21.046875 -7.867188 22.234375 -9.078125 C 23.429688 -10.285156 24.03125 -11.816406 24.03125 -13.671875 C 24.03125 -15.554688 23.414062 -17.101562 22.1875 -18.3125 C 20.957031 -19.53125 19.453125 -20.140625 17.671875 -20.140625 C 15.859375 -20.140625 14.335938 -19.53125 13.109375 -18.3125 Z M 13.109375 -18.3125 "/></g></g></g><g fill="#ffffff" fill-opacity="1"><g transform="translate(104.765745, 174.032509)"><g><path d="M 3.203125 0 L 3.203125 -27.390625 L 12.65625 -27.390625 L 12.65625 -24.515625 L 12.765625 -24.515625 C 15.222656 -26.972656 17.835938 -28.203125 20.609375 -28.203125 C 21.960938 -28.203125 23.304688 -28.019531 24.640625 -27.65625 C 25.984375 -27.300781 27.265625 -26.75 28.484375 -26 C 29.710938 -25.257812 30.707031 -24.203125 31.46875 -22.828125 C 32.238281 -21.460938 32.625 -19.867188 32.625 -18.046875 L 32.625 0 L 23.171875 0 L 23.171875 -15.484375 C 23.171875 -16.910156 22.71875 -18.15625 21.8125 -19.21875 C 20.90625 -20.289062 19.722656 -20.828125 18.265625 -20.828125 C 16.835938 -20.828125 15.546875 -20.273438 14.390625 -19.171875 C 13.234375 -18.066406 12.65625 -16.835938 12.65625 -15.484375 L 12.65625 0 Z M 3.203125 0 "/></g></g></g><g fill="#ffffff" fill-opacity="1"><g transform="translate(137.378813, 174.032509)"><g/></g></g><g fill="#ffffff" fill-opacity="1"><g transform="translate(13.523352, 224.282505)"><g><path d="M 28.40625 -44.0625 L 28.40625 -35.25 L 13.25 -35.25 L 13.25 -26.484375 L 27.765625 -26.484375 L 27.765625 -17.671875 L 13.25 -17.671875 L 13.25 -8.8125 L 28.40625 -8.8125 L 28.40625 0 L 3.203125 0 L 3.203125 -44.0625 Z M 28.40625 -44.0625 "/></g></g></g><g fill="#ffffff" fill-opacity="1"><g transform="translate(41.819651, 224.282505)"><g><path d="M 9.296875 -11.421875 C 11.003906 -11.421875 12.453125 -10.820312 13.640625 -9.625 C 14.835938 -8.4375 15.4375 -6.988281 15.4375 -5.28125 C 15.4375 -3.613281 14.835938 -2.179688 13.640625 -0.984375 C 12.453125 0.203125 11.003906 0.796875 9.296875 0.796875 C 7.617188 0.796875 6.179688 0.203125 4.984375 -0.984375 C 3.796875 -2.179688 3.203125 -3.613281 3.203125 -5.28125 C 3.203125 -6.988281 3.796875 -8.4375 4.984375 -9.625 C 6.179688 -10.820312 7.617188 -11.421875 9.296875 -11.421875 Z M 9.296875 -11.421875 "/></g></g></g><g fill="#ffffff" fill-opacity="1"><g transform="translate(57.782722, 224.282505)"><g><path d="M 3.203125 0 L 3.203125 -27.390625 L 12.65625 -27.390625 L 12.65625 -24.515625 L 12.765625 -24.515625 C 15.222656 -26.972656 17.835938 -28.203125 20.609375 -28.203125 C 22.609375 -28.203125 24.476562 -27.789062 26.21875 -26.96875 C 27.96875 -26.144531 29.285156 -24.878906 30.171875 -23.171875 C 32.953125 -26.523438 35.976562 -28.203125 39.25 -28.203125 C 42.175781 -28.203125 44.6875 -27.378906 46.78125 -25.734375 C 48.882812 -24.097656 49.9375 -21.535156 49.9375 -18.046875 L 49.9375 0 L 40.484375 0 L 40.484375 -15.484375 C 40.484375 -16.941406 40.082031 -18.160156 39.28125 -19.140625 C 38.476562 -20.117188 37.273438 -20.609375 35.671875 -20.609375 C 34.285156 -20.609375 33.226562 -20.191406 32.5 -19.359375 C 31.769531 -18.523438 31.367188 -17.519531 31.296875 -16.34375 L 31.296875 0 L 21.84375 0 L 21.84375 -15.484375 C 21.84375 -16.941406 21.441406 -18.160156 20.640625 -19.140625 C 19.835938 -20.117188 18.632812 -20.609375 17.03125 -20.609375 C 15.570312 -20.609375 14.476562 -20.15625 13.75 -19.25 C 13.019531 -18.34375 12.65625 -17.265625 12.65625 -16.015625 L 12.65625 0 Z M 3.203125 0 "/></g></g></g><g fill="#ffffff" fill-opacity="1"><g transform="translate(107.702231, 224.282505)"><g><path d="M 5.796875 -3.25 C 2.753906 -5.957031 1.234375 -9.429688 1.234375 -13.671875 C 1.234375 -17.910156 2.816406 -21.390625 5.984375 -24.109375 C 9.148438 -26.835938 13.066406 -28.203125 17.734375 -28.203125 C 22.328125 -28.203125 26.195312 -26.828125 29.34375 -24.078125 C 32.5 -21.335938 34.078125 -17.867188 34.078125 -13.671875 C 34.078125 -9.472656 32.535156 -6.007812 29.453125 -3.28125 C 26.367188 -0.5625 22.460938 0.796875 17.734375 0.796875 C 12.816406 0.796875 8.835938 -0.550781 5.796875 -3.25 Z M 13.109375 -18.3125 C 11.878906 -17.101562 11.265625 -15.554688 11.265625 -13.671875 C 11.265625 -11.785156 11.851562 -10.242188 13.03125 -9.046875 C 14.207031 -7.859375 15.753906 -7.265625 17.671875 -7.265625 C 19.523438 -7.265625 21.046875 -7.867188 22.234375 -9.078125 C 23.429688 -10.285156 24.03125 -11.816406 24.03125 -13.671875 C 24.03125 -15.554688 23.414062 -17.101562 22.1875 -18.3125 C 20.957031 -19.53125 19.453125 -20.140625 17.671875 -20.140625 C 15.859375 -20.140625 14.335938 -19.53125 13.109375 -18.3125 Z M 13.109375 -18.3125 "/></g></g></g><g fill="#ffffff" fill-opacity="1"><g transform="translate(140.323172, 224.282505)"><g><path d="M 31.40625 -23.984375 C 33.96875 -21.171875 35.25 -17.734375 35.25 -13.671875 C 35.25 -9.609375 33.96875 -6.179688 31.40625 -3.390625 C 28.84375 -0.597656 25.582031 0.796875 21.625 0.796875 C 18 0.796875 15.007812 -0.5 12.65625 -3.09375 L 12.546875 -3.09375 L 12.546875 0 L 3.203125 0 L 3.203125 -45.921875 L 12.65625 -45.921875 L 12.65625 -24.78125 C 15.007812 -27.0625 18 -28.203125 21.625 -28.203125 C 25.582031 -28.203125 28.84375 -26.796875 31.40625 -23.984375 Z M 23.4375 -9.046875 C 24.613281 -10.242188 25.203125 -11.785156 25.203125 -13.671875 C 25.203125 -15.554688 24.585938 -17.101562 23.359375 -18.3125 C 22.128906 -19.53125 20.609375 -20.140625 18.796875 -20.140625 C 17.015625 -20.140625 15.507812 -19.53125 14.28125 -18.3125 C 13.050781 -17.101562 12.4375 -15.554688 12.4375 -13.671875 C 12.4375 -11.816406 13.03125 -10.285156 14.21875 -9.078125 C 15.414062 -7.867188 16.941406 -7.265625 18.796875 -7.265625 C 20.722656 -7.265625 22.269531 -7.859375 23.4375 -9.046875 Z M 23.4375 -9.046875 "/></g></g></g><g fill="#ffffff" fill-opacity="1"><g transform="translate(174.118717, 224.282505)"><g><path d="M 4.109375 -42.671875 C 5.210938 -43.773438 6.53125 -44.328125 8.0625 -44.328125 C 9.59375 -44.328125 10.910156 -43.773438 12.015625 -42.671875 C 13.117188 -41.566406 13.671875 -40.25 13.671875 -38.71875 C 13.671875 -37.1875 13.117188 -35.867188 12.015625 -34.765625 C 10.910156 -33.660156 9.59375 -33.109375 8.0625 -33.109375 C 6.53125 -33.109375 5.210938 -33.660156 4.109375 -34.765625 C 3.003906 -35.867188 2.453125 -37.1875 2.453125 -38.71875 C 2.453125 -40.25 3.003906 -41.566406 4.109375 -42.671875 Z M 3.203125 -27.390625 L 3.203125 0 L 12.65625 0 L 12.65625 -27.390625 Z M 3.203125 -27.390625 "/></g></g></g><g fill="#ffffff" fill-opacity="1"><g transform="translate(187.572436, 224.282505)"><g><path d="M 3.203125 0 L 3.203125 -45.921875 L 12.65625 -45.921875 L 12.65625 0 Z M 3.203125 0 "/></g></g></g><g fill="#ffffff" fill-opacity="1"><g transform="translate(200.759187, 224.282505)"><g><path d="M 4.109375 -42.671875 C 5.210938 -43.773438 6.53125 -44.328125 8.0625 -44.328125 C 9.59375 -44.328125 10.910156 -43.773438 12.015625 -42.671875 C 13.117188 -41.566406 13.671875 -40.25 13.671875 -38.71875 C 13.671875 -37.1875 13.117188 -35.867188 12.015625 -34.765625 C 10.910156 -33.660156 9.59375 -33.109375 8.0625 -33.109375 C 6.53125 -33.109375 5.210938 -33.660156 4.109375 -34.765625 C 3.003906 -35.867188 2.453125 -37.1875 2.453125 -38.71875 C 2.453125 -40.25 3.003906 -41.566406 4.109375 -42.671875 Z M 3.203125 -27.390625 L 3.203125 0 L 12.65625 0 L 12.65625 -27.390625 Z M 3.203125 -27.390625 "/></g></g></g><g fill="#ffffff" fill-opacity="1"><g transform="translate(214.212906, 224.282505)"><g><path d="M 4.8125 -27.390625 L 4.8125 -37.59375 L 14.265625 -37.59375 L 14.265625 -27.390625 L 20.03125 -27.390625 L 20.03125 -20.1875 L 14.265625 -20.1875 L 14.265625 -11.484375 C 14.265625 -8.953125 14.972656 -7.6875 16.390625 -7.6875 C 16.753906 -7.6875 17.128906 -7.757812 17.515625 -7.90625 C 17.910156 -8.050781 18.210938 -8.191406 18.421875 -8.328125 L 18.75 -8.546875 L 21.09375 -0.90625 C 19.0625 0.226562 16.75 0.796875 14.15625 0.796875 C 12.375 0.796875 10.84375 0.488281 9.5625 -0.125 C 8.28125 -0.75 7.304688 -1.585938 6.640625 -2.640625 C 5.984375 -3.691406 5.515625 -4.796875 5.234375 -5.953125 C 4.953125 -7.109375 4.8125 -8.347656 4.8125 -9.671875 L 4.8125 -20.1875 L 0.859375 -20.1875 L 0.859375 -27.390625 Z M 4.8125 -27.390625 "/></g></g></g><g fill="#ffffff" fill-opacity="1"><g transform="translate(232.631942, 224.282505)"><g><path d="M 23.984375 -27.390625 L 34.875 -27.390625 L 13.34375 13.890625 L 2.453125 13.890625 L 11.90625 -4.265625 L -1.0625 -27.390625 L 9.828125 -27.390625 L 17.46875 -13.34375 Z M 23.984375 -27.390625 "/></g></g></g><path fill="#ff1616" d="M 336.683594 227.230469 L 336 227.230469 L 336 187.300781 C 336 186.683594 335.589844 186.140625 334.996094 185.980469 L 234.121094 158.566406 C 233.230469 158.324219 232.617188 157.511719 232.617188 156.589844 L 232.617188 114.542969 L 233.296875 114.542969 L 233.296875 156.589844 C 233.296875 157.207031 233.710938 157.746094 234.304688 157.910156 L 335.171875 185.324219 C 336.0625 185.566406 336.683594 186.378906 336.683594 187.300781 L 336.683594 227.230469 " fill-opacity="1" fill-rule="nonzero"/><g clip-path="url(#833b454825)"><path fill="#ff1616" d="M 234.246094 114.28125 C 234.246094 115.035156 233.636719 115.644531 232.886719 115.644531 C 232.128906 115.644531 231.519531 115.035156 231.519531 114.28125 C 231.519531 113.53125 232.128906 112.914062 232.886719 112.914062 C 233.636719 112.914062 234.246094 113.53125 234.246094 114.28125 " fill-opacity="1" fill-rule="nonzero"/></g><path fill="#ff1616" d="M 337.667969 227.699219 C 337.667969 228.457031 337.058594 229.066406 336.304688 229.066406 C 335.554688 229.066406 334.945312 228.457031 334.945312 227.699219 C 334.945312 226.949219 335.554688 226.339844 336.304688 226.339844 C 337.058594 226.339844 337.667969 226.949219 337.667969 227.699219 " fill-opacity="1" fill-rule="nonzero"/><path fill="#ff1616" d="M 263.699219 184.429688 L 263.015625 184.429688 L 263.015625 134.402344 C 263.015625 133.503906 263.589844 132.71875 264.445312 132.449219 L 296.722656 122.238281 C 297.105469 122.113281 297.503906 122.109375 297.882812 122.214844 L 341.324219 134.167969 L 341.144531 134.824219 L 297.703125 122.871094 C 297.449219 122.800781 297.179688 122.804688 296.929688 122.886719 L 264.648438 133.101562 C 264.082031 133.28125 263.699219 133.804688 263.699219 134.402344 L 263.699219 184.429688 " fill-opacity="1" fill-rule="nonzero"/><path fill="#ff1616" d="M 264.738281 184.410156 C 264.738281 185.167969 264.128906 185.777344 263.371094 185.777344 C 262.621094 185.777344 262.007812 185.167969 262.007812 184.410156 C 262.007812 183.660156 262.621094 183.046875 263.371094 183.046875 C 264.128906 183.046875 264.738281 183.660156 264.738281 184.410156 " fill-opacity="1" fill-rule="nonzero"/><path fill="#ff1616" d="M 342.765625 134.710938 C 342.765625 135.460938 342.15625 136.070312 341.402344 136.070312 C 340.644531 136.070312 340.035156 135.460938 340.035156 134.710938 C 340.035156 133.957031 340.644531 133.347656 341.402344 133.347656 C 342.15625 133.347656 342.765625 133.957031 342.765625 134.710938 " fill-opacity="1" fill-rule="nonzero"/><path fill="#ff1616" d="M 368.265625 216.75 L 367.585938 216.75 L 367.585938 196.429688 C 367.585938 195.820312 367.175781 195.28125 366.589844 195.117188 L 339.867188 187.617188 C 339.296875 187.453125 338.695312 187.675781 338.367188 188.167969 L 327.199219 204.679688 C 326.710938 205.40625 325.820312 205.738281 324.976562 205.511719 L 263.300781 189.140625 L 263.476562 188.476562 L 325.152344 204.855469 C 325.714844 205.007812 326.3125 204.777344 326.636719 204.296875 L 337.796875 187.78125 C 338.296875 187.046875 339.199219 186.71875 340.046875 186.960938 L 366.773438 194.460938 C 367.652344 194.707031 368.265625 195.515625 368.265625 196.429688 L 368.265625 216.75 " fill-opacity="1" fill-rule="nonzero"/><path fill="#ff1616" d="M 264.785156 188.710938 C 264.785156 189.46875 264.175781 190.078125 263.417969 190.078125 C 262.667969 190.078125 262.058594 189.46875 262.058594 188.710938 C 262.058594 187.960938 262.667969 187.347656 263.417969 187.347656 C 264.175781 187.347656 264.785156 187.960938 264.785156 188.710938 " fill-opacity="1" fill-rule="nonzero"/><g clip-path="url(#92116606d1)"><path fill="#ff1616" d="M 369.320312 217.164062 C 369.320312 217.914062 368.710938 218.53125 367.960938 218.53125 C 367.207031 218.53125 366.597656 217.914062 366.597656 217.164062 C 366.597656 216.410156 367.207031 215.800781 367.960938 215.800781 C 368.710938 215.800781 369.320312 216.410156 369.320312 217.164062 " fill-opacity="1" fill-rule="nonzero"/></g><path fill="#ff1616" d="M 246.402344 186.445312 L 245.71875 186.445312 L 245.71875 152.488281 L 246.402344 152.488281 L 246.402344 186.445312 " fill-opacity="1" fill-rule="nonzero"/><path fill="#ff1616" d="M 247.328125 152.332031 C 247.328125 153.085938 246.71875 153.695312 245.964844 153.695312 C 245.214844 153.695312 244.605469 153.085938 244.605469 152.332031 C 244.605469 151.582031 245.214844 150.964844 245.964844 150.964844 C 246.71875 150.964844 247.328125 151.582031 247.328125 152.332031 " fill-opacity="1" fill-rule="nonzero"/><path fill="#ff1616" d="M 247.441406 186.363281 C 247.441406 187.117188 246.832031 187.726562 246.082031 187.726562 C 245.324219 187.726562 244.714844 187.117188 244.714844 186.363281 C 244.714844 185.613281 245.324219 184.996094 246.082031 184.996094 C 246.832031 184.996094 247.441406 185.613281 247.441406 186.363281 " fill-opacity="1" fill-rule="nonzero"/><path fill="#ff1616" d="M 263.664062 135.613281 L 262.984375 135.613281 L 262.984375 104.929688 C 262.984375 104.214844 263.367188 103.539062 263.976562 103.171875 L 278.238281 94.59375 L 278.589844 95.171875 L 264.328125 103.757812 C 263.917969 104.003906 263.664062 104.449219 263.664062 104.929688 L 263.664062 135.613281 " fill-opacity="1" fill-rule="nonzero"/><path fill="#ff1616" d="M 280.042969 94.808594 C 280.042969 95.566406 279.433594 96.175781 278.675781 96.175781 C 277.925781 96.175781 277.3125 95.566406 277.3125 94.808594 C 277.3125 94.058594 277.925781 93.449219 278.675781 93.449219 C 279.433594 93.449219 280.042969 94.058594 280.042969 94.808594 " fill-opacity="1" fill-rule="nonzero"/><path fill="#ff1616" d="M 280.359375 189.949219 C 280.164062 189.949219 279.964844 189.917969 279.773438 189.859375 L 263.132812 184.949219 L 263.324219 184.292969 L 279.964844 189.210938 C 280.382812 189.332031 280.820312 189.257812 281.167969 188.992188 C 281.519531 188.734375 281.71875 188.335938 281.71875 187.898438 L 281.71875 183.121094 C 281.71875 182.570312 281.929688 182.0625 282.316406 181.675781 L 283.300781 180.691406 C 283.558594 180.433594 283.699219 180.09375 283.699219 179.730469 L 283.699219 150.9375 C 283.699219 149.804688 284.617188 148.890625 285.75 148.890625 L 295.503906 148.890625 C 296.261719 148.890625 296.871094 148.277344 296.871094 147.527344 L 296.871094 104.039062 C 296.871094 103.324219 297.257812 102.644531 297.871094 102.28125 L 325.9375 85.640625 L 326.285156 86.226562 L 298.222656 102.867188 C 297.808594 103.113281 297.554688 103.558594 297.554688 104.039062 L 297.554688 147.527344 C 297.554688 148.652344 296.636719 149.570312 295.503906 149.570312 L 285.75 149.570312 C 284.992188 149.570312 284.382812 150.1875 284.382812 150.9375 L 284.382812 179.730469 C 284.382812 180.273438 284.167969 180.785156 283.78125 181.171875 L 282.800781 182.15625 C 282.542969 182.414062 282.398438 182.753906 282.398438 183.121094 L 282.398438 187.898438 C 282.398438 188.554688 282.097656 189.152344 281.578125 189.539062 C 281.21875 189.808594 280.792969 189.949219 280.359375 189.949219 " fill-opacity="1" fill-rule="nonzero"/><g clip-path="url(#c54bd0c100)"><path fill="#ff1616" d="M 327.421875 85.796875 C 327.421875 86.546875 326.8125 87.164062 326.054688 87.164062 C 325.304688 87.164062 324.691406 86.546875 324.691406 85.796875 C 324.691406 85.042969 325.304688 84.433594 326.054688 84.433594 C 326.8125 84.433594 327.421875 85.042969 327.421875 85.796875 " fill-opacity="1" fill-rule="nonzero"/></g><path fill="#ff1616" d="M 292.375 232.796875 L 291.691406 232.796875 L 291.691406 126.964844 C 291.691406 126.058594 292.277344 125.273438 293.144531 125.007812 L 297.109375 123.808594 L 297.308594 124.464844 L 293.34375 125.660156 C 292.761719 125.835938 292.375 126.363281 292.375 126.964844 L 292.375 232.796875 " fill-opacity="1" fill-rule="nonzero"/><g clip-path="url(#cc229eb086)"><path fill="#ff1616" d="M 293.347656 233.066406 C 293.347656 233.824219 292.738281 234.433594 291.984375 234.433594 C 291.234375 234.433594 290.625 233.824219 290.625 233.066406 C 290.625 232.316406 291.234375 231.703125 291.984375 231.703125 C 292.738281 231.703125 293.347656 232.316406 293.347656 233.066406 " fill-opacity="1" fill-rule="nonzero"/></g></svg>