<svg width="124" height="124" viewBox="0 0 124 124" fill="none" xmlns="http://www.w3.org/2000/svg">
<path fill-rule="evenodd" clip-rule="evenodd" d="M34.17 61.506C34.17 46.4087 46.4087 34.17 61.506 34.17C76.6029 34.17 88.8419 46.4087 88.8419 61.506C88.8419 76.6029 76.6029 88.8419 61.506 88.8419C46.4087 88.8419 34.17 76.6029 34.17 61.506ZM61.506 68.34C57.7315 68.34 54.672 65.2804 54.672 61.506C54.672 57.7315 57.7315 54.672 61.506 54.672C65.2804 54.672 68.34 57.7315 68.34 61.506C68.34 65.2804 65.2804 68.34 61.506 68.34Z" fill="#890000"/>
<path fill-rule="evenodd" clip-rule="evenodd" d="M0 61.506C0 27.5372 27.5372 0 61.506 0C95.475 0 123.012 27.5372 123.012 61.506C123.012 95.475 95.475 123.012 61.506 123.012C27.5372 123.012 0 95.475 0 61.506ZM61.506 109.344C35.0858 109.344 13.668 87.9262 13.668 61.506C13.668 35.0858 35.0858 13.668 61.506 13.668C87.9262 13.668 109.344 35.0858 109.344 61.506C109.344 87.9262 87.9262 109.344 61.506 109.344Z" fill="#890000"/>
</svg>
