<svg width="99" height="36" viewBox="0 0 99 36" fill="none" xmlns="http://www.w3.org/2000/svg">
<path d="M5.0762 6.73608H93.4818" stroke="white" stroke-width="3.15734" stroke-miterlimit="10" stroke-linecap="round" stroke-linejoin="round"/>
<path d="M5.0762 2V14.6294" stroke="white" stroke-width="3.15734" stroke-miterlimit="10" stroke-linecap="round" stroke-linejoin="round"/>
<path d="M93.4818 2V14.6294" stroke="white" stroke-width="3.15734" stroke-miterlimit="10" stroke-linecap="round" stroke-linejoin="round"/>
<path d="M49.279 2V14.6294" stroke="white" stroke-width="3.15734" stroke-miterlimit="10" stroke-linecap="round" stroke-linejoin="round"/>
<path d="M27.1776 2V11.472" stroke="white" stroke-width="3.15734" stroke-miterlimit="10" stroke-linecap="round" stroke-linejoin="round"/>
<path d="M71.3804 2V11.472" stroke="white" stroke-width="3.15734" stroke-miterlimit="10" stroke-linecap="round" stroke-linejoin="round"/>
<path d="M5.02394 33.424C3.35387 33.424 2 32.0701 2 30.4V25.3974C2 23.7273 3.35387 22.3733 5.02394 22.3733C6.69418 22.3733 8.04805 23.7273 8.04805 25.3974V30.4C8.04805 32.0701 6.69418 33.424 5.02394 33.424Z" stroke="white" stroke-width="3.15734" stroke-miterlimit="10" stroke-linecap="round" stroke-linejoin="round"/>
<path d="M89.9958 25.0674C90.3123 23.5206 91.6809 22.3569 93.3213 22.3569C94.2585 22.3569 95.1072 22.7369 95.7215 23.3512C96.6771 24.3067 96.5888 25.8946 95.6923 26.9056L89.9268 33.4076H96.7157" stroke="white" stroke-width="3.15734" stroke-miterlimit="10" stroke-linecap="round" stroke-linejoin="round"/>
<path d="M47.8255 24.7521L50.8848 22.4602V33.5109" stroke="white" stroke-width="3.15734" stroke-miterlimit="10" stroke-linecap="round" stroke-linejoin="round"/>
</svg>
