<svg width="96" height="61" viewBox="0 0 96 61" fill="none" xmlns="http://www.w3.org/2000/svg">
<path fill-rule="evenodd" clip-rule="evenodd" d="M33.1824 48.2979C32.9272 48.2858 32.6434 48.2748 32.3285 48.2652C30.4804 48.2092 27.9817 48.2087 24.4943 48.2087C21.0072 48.2087 18.5085 48.2095 16.6604 48.2655C16.3452 48.275 16.0614 48.2861 15.8062 48.2981C16.454 52.5141 20.097 55.7427 24.4943 55.7427C28.8916 55.7427 32.5349 52.5138 33.1824 48.2979ZM24.4943 60.7659C32.1235 60.7659 38.308 54.5814 38.308 46.9522C38.308 45.8368 38.308 45.0519 37.9496 44.4994C37.0975 43.1853 34.2187 43.1855 24.4943 43.1855C10.6806 43.1855 10.6806 43.1858 10.6806 46.9522C10.6806 54.5814 16.8651 60.7659 24.4943 60.7659Z" fill="white"/>
<path fill-rule="evenodd" clip-rule="evenodd" d="M59.642 38.1618H45.8428V43.185H59.001L59.642 38.1618ZM40.8196 33.1387V48.2082H63.4239L65.3468 33.1387H40.8196Z" fill="white"/>
<path fill-rule="evenodd" clip-rule="evenodd" d="M63.8078 13.0459H75.982V35.6502H70.9588V18.0691H68.0632L63.3899 46.1094L58.4351 45.2836L63.8078 13.0459Z" fill="white"/>
<path fill-rule="evenodd" clip-rule="evenodd" d="M71.1156 48.6045C72.028 53.373 76.633 56.4989 81.4015 55.5865C86.17 54.6743 89.2959 50.069 88.3835 45.3005L93.3172 44.3567C94.7508 51.8498 89.8387 59.0864 82.3456 60.5202C74.8523 61.9539 67.6157 57.0417 66.1818 49.5486L71.1156 48.6045Z" fill="white"/>
<path fill-rule="evenodd" clip-rule="evenodd" d="M90.1653 42.5616C89.3453 40.6154 87.9893 38.921 86.2319 37.6906C83.7763 35.9712 80.7386 35.2978 77.7865 35.8182C74.8346 36.3386 72.2102 38.0106 70.4911 40.4659C69.2604 42.2235 68.5654 44.2795 68.4609 46.3887L90.1653 42.5616ZM91.3156 47.4594L69.0549 51.3848C66.4745 51.8396 63.4004 50.1046 63.4242 46.8295C63.4483 43.5431 64.4648 40.315 66.3763 37.5849C68.8598 34.0383 72.6503 31.6231 76.9142 30.8714C81.1784 30.1194 85.5663 31.0924 89.113 33.5759C91.843 35.4872 93.9023 38.1733 95.0488 41.2533C96.1913 44.3225 93.896 47.0046 91.3156 47.4594Z" fill="white"/>
<path fill-rule="evenodd" clip-rule="evenodd" d="M40.8196 18.0691H18.2154C16.8282 18.0691 15.7038 19.1935 15.7038 20.5807V23.0922H43.3312V20.5807C43.3312 19.1935 42.2068 18.0691 40.8196 18.0691ZM18.2154 13.0459C14.0539 13.0459 10.6806 16.4192 10.6806 20.5807V25.6038C10.6806 26.991 11.8051 28.1154 13.1922 28.1154H45.8428C47.2299 28.1154 48.3544 26.991 48.3544 25.6038V20.5807C48.3544 16.4192 44.9811 13.0459 40.8196 13.0459H18.2154Z" fill="white"/>
<path fill-rule="evenodd" clip-rule="evenodd" d="M40.8196 28.1155H24.634C15.4928 28.1155 7.86119 34.5788 6.06005 43.185H40.8196V28.1155ZM24.634 23.0923C11.3793 23.0923 0.634277 33.8373 0.634277 47.092C0.634277 47.7083 1.13403 48.2081 1.75053 48.2081H40.8196C43.5939 48.2081 45.8428 45.9593 45.8428 43.185V25.1016C45.8428 23.9919 44.9432 23.0923 43.8335 23.0923H24.634Z" fill="white"/>
<path fill-rule="evenodd" clip-rule="evenodd" d="M75.9818 5.51121H69.7028C67.6222 5.51121 65.9355 7.19799 65.9355 9.27858C65.9355 11.3592 67.6222 13.046 69.7028 13.046H75.9818V5.51121ZM69.7028 0.488037C64.8479 0.488037 60.9123 4.42369 60.9123 9.27858C60.9123 14.1335 64.8479 18.0691 69.7028 18.0691H79.4593C80.313 18.0691 81.005 17.3772 81.005 16.5235V2.03367C81.005 1.17998 80.313 0.488037 79.4593 0.488037H69.7028Z" fill="white"/>
<path d="M51.3007 5.47347C51.5408 4.10742 52.8428 3.19446 54.2091 3.43457L61.6301 4.73883C62.9964 4.97894 63.9091 6.28095 63.669 7.64725C63.4289 9.0133 62.1269 9.92626 60.7606 9.68615L53.3396 8.38189C51.9736 8.14178 51.0606 6.83978 51.3007 5.47347Z" fill="white"/>
</svg>
